<mxfile host="Electron" modified="2025-03-13T21:31:42.310Z" agent="Mozilla/5.0 (Windows NT 10.0; Win64; x64) AppleWebKit/537.36 (KHTML, like Gecko) draw.io/21.6.8 Chrome/114.0.5735.289 Electron/25.5.0 Safari/537.36" etag="R9J24y6bc-NT0zmetZDf" version="21.6.8" type="device">
  <diagram name="Page-1" id="dCBXekfdhKa9mS7SUgW9">
    <mxGraphModel dx="1338" dy="820" grid="1" gridSize="10" guides="1" tooltips="1" connect="1" arrows="1" fold="1" page="1" pageScale="1" pageWidth="850" pageHeight="1100" math="0" shadow="0">
      <root>
        <mxCell id="0" />
        <mxCell id="1" parent="0" />
        <mxCell id="WwvPfcLCm5THqT_-2dCE-1" value="User" style="shape=umlLifeline;perimeter=lifelinePerimeter;whiteSpace=wrap;container=1;dropTarget=0;collapsible=0;recursiveResize=0;outlineConnect=0;portConstraint=eastwest;newEdgeStyle={&quot;edgeStyle&quot;:&quot;elbowEdgeStyle&quot;,&quot;elbow&quot;:&quot;vertical&quot;,&quot;curved&quot;:0,&quot;rounded&quot;:0};size=65;" vertex="1" parent="1">
          <mxGeometry x="20" y="20" width="150" height="730" as="geometry" />
        </mxCell>
        <mxCell id="WwvPfcLCm5THqT_-2dCE-2" value="Chatbot" style="shape=umlLifeline;perimeter=lifelinePerimeter;whiteSpace=wrap;container=1;dropTarget=0;collapsible=0;recursiveResize=0;outlineConnect=0;portConstraint=eastwest;newEdgeStyle={&quot;edgeStyle&quot;:&quot;elbowEdgeStyle&quot;,&quot;elbow&quot;:&quot;vertical&quot;,&quot;curved&quot;:0,&quot;rounded&quot;:0};size=65;" vertex="1" parent="1">
          <mxGeometry x="306" y="20" width="150" height="730" as="geometry" />
        </mxCell>
        <mxCell id="WwvPfcLCm5THqT_-2dCE-3" value="Redis" style="shape=umlLifeline;perimeter=lifelinePerimeter;whiteSpace=wrap;container=1;dropTarget=0;collapsible=0;recursiveResize=0;outlineConnect=0;portConstraint=eastwest;newEdgeStyle={&quot;edgeStyle&quot;:&quot;elbowEdgeStyle&quot;,&quot;elbow&quot;:&quot;vertical&quot;,&quot;curved&quot;:0,&quot;rounded&quot;:0};size=65;" vertex="1" parent="1">
          <mxGeometry x="517" y="20" width="150" height="730" as="geometry" />
        </mxCell>
        <mxCell id="WwvPfcLCm5THqT_-2dCE-4" value="BigQuery" style="shape=umlLifeline;perimeter=lifelinePerimeter;whiteSpace=wrap;container=1;dropTarget=0;collapsible=0;recursiveResize=0;outlineConnect=0;portConstraint=eastwest;newEdgeStyle={&quot;edgeStyle&quot;:&quot;elbowEdgeStyle&quot;,&quot;elbow&quot;:&quot;vertical&quot;,&quot;curved&quot;:0,&quot;rounded&quot;:0};size=65;" vertex="1" parent="1">
          <mxGeometry x="717" y="20" width="150" height="730" as="geometry" />
        </mxCell>
        <mxCell id="WwvPfcLCm5THqT_-2dCE-5" value="LLM" style="shape=umlLifeline;perimeter=lifelinePerimeter;whiteSpace=wrap;container=1;dropTarget=0;collapsible=0;recursiveResize=0;outlineConnect=0;portConstraint=eastwest;newEdgeStyle={&quot;edgeStyle&quot;:&quot;elbowEdgeStyle&quot;,&quot;elbow&quot;:&quot;vertical&quot;,&quot;curved&quot;:0,&quot;rounded&quot;:0};size=65;" vertex="1" parent="1">
          <mxGeometry x="917" y="20" width="150" height="730" as="geometry" />
        </mxCell>
        <mxCell id="WwvPfcLCm5THqT_-2dCE-6" value="alt" style="shape=umlFrame;dashed=1;pointerEvents=0;dropTarget=0;strokeColor=#B3B3B3;height=20;width=30" vertex="1" parent="1">
          <mxGeometry x="371" y="199" width="431" height="300" as="geometry" />
        </mxCell>
        <mxCell id="WwvPfcLCm5THqT_-2dCE-7" value="[Cache Hit]" style="text;strokeColor=none;fillColor=none;align=center;verticalAlign=middle;whiteSpace=wrap;" vertex="1" parent="WwvPfcLCm5THqT_-2dCE-6">
          <mxGeometry x="30" width="401" height="20" as="geometry" />
        </mxCell>
        <mxCell id="WwvPfcLCm5THqT_-2dCE-8" value="[Cache Miss]" style="shape=line;dashed=1;whiteSpace=wrap;verticalAlign=top;labelPosition=center;verticalLabelPosition=middle;align=center;strokeColor=#B3B3B3;" vertex="1" parent="WwvPfcLCm5THqT_-2dCE-6">
          <mxGeometry y="103" width="431" height="4" as="geometry" />
        </mxCell>
        <mxCell id="WwvPfcLCm5THqT_-2dCE-9" value="&quot;Status of pipeline PCI-1234?&quot;" style="verticalAlign=bottom;endArrow=block;edgeStyle=elbowEdgeStyle;elbow=vertical;curved=0;rounded=0;" edge="1" parent="1" source="WwvPfcLCm5THqT_-2dCE-1" target="WwvPfcLCm5THqT_-2dCE-2">
          <mxGeometry relative="1" as="geometry">
            <Array as="points">
              <mxPoint x="248" y="127" />
            </Array>
          </mxGeometry>
        </mxCell>
        <mxCell id="WwvPfcLCm5THqT_-2dCE-10" value="GET status:PCI-1234" style="verticalAlign=bottom;endArrow=block;edgeStyle=elbowEdgeStyle;elbow=vertical;curved=0;rounded=0;" edge="1" parent="1" source="WwvPfcLCm5THqT_-2dCE-2" target="WwvPfcLCm5THqT_-2dCE-3">
          <mxGeometry relative="1" as="geometry">
            <Array as="points">
              <mxPoint x="497" y="179" />
            </Array>
          </mxGeometry>
        </mxCell>
        <mxCell id="WwvPfcLCm5THqT_-2dCE-11" value="Return cached data" style="verticalAlign=bottom;endArrow=block;edgeStyle=elbowEdgeStyle;elbow=vertical;curved=0;rounded=0;dashed=1;dashPattern=2 3;" edge="1" parent="1" source="WwvPfcLCm5THqT_-2dCE-3" target="WwvPfcLCm5THqT_-2dCE-2">
          <mxGeometry relative="1" as="geometry">
            <Array as="points">
              <mxPoint x="497" y="277" />
            </Array>
          </mxGeometry>
        </mxCell>
        <mxCell id="WwvPfcLCm5THqT_-2dCE-12" value="SELECT * FROM logs WHERE pipeline_id = &#39;PCI-1234&#39; ORDER BY timestamp DESC LIMIT 1" style="verticalAlign=bottom;endArrow=block;edgeStyle=elbowEdgeStyle;elbow=vertical;curved=0;rounded=0;" edge="1" parent="1" source="WwvPfcLCm5THqT_-2dCE-2" target="WwvPfcLCm5THqT_-2dCE-4">
          <mxGeometry relative="1" as="geometry">
            <Array as="points">
              <mxPoint x="704" y="375" />
            </Array>
          </mxGeometry>
        </mxCell>
        <mxCell id="WwvPfcLCm5THqT_-2dCE-13" value="Return historical data" style="verticalAlign=bottom;endArrow=block;edgeStyle=elbowEdgeStyle;elbow=vertical;curved=0;rounded=0;dashed=1;dashPattern=2 3;" edge="1" parent="1" source="WwvPfcLCm5THqT_-2dCE-4" target="WwvPfcLCm5THqT_-2dCE-2">
          <mxGeometry relative="1" as="geometry">
            <Array as="points">
              <mxPoint x="597" y="427" />
            </Array>
          </mxGeometry>
        </mxCell>
        <mxCell id="WwvPfcLCm5THqT_-2dCE-14" value="SET status:PCI-1234" style="verticalAlign=bottom;endArrow=block;edgeStyle=elbowEdgeStyle;elbow=vertical;curved=0;rounded=0;" edge="1" parent="1" source="WwvPfcLCm5THqT_-2dCE-2" target="WwvPfcLCm5THqT_-2dCE-3">
          <mxGeometry relative="1" as="geometry">
            <Array as="points">
              <mxPoint x="497" y="479" />
            </Array>
          </mxGeometry>
        </mxCell>
        <mxCell id="WwvPfcLCm5THqT_-2dCE-15" value="&quot;Generate response with: {status: &#39;failed&#39;, error: &#39;OOM&#39;, docs: &#39;...&#39;}&quot;" style="verticalAlign=bottom;endArrow=block;edgeStyle=elbowEdgeStyle;elbow=vertical;curved=0;rounded=0;" edge="1" parent="1" source="WwvPfcLCm5THqT_-2dCE-2" target="WwvPfcLCm5THqT_-2dCE-5">
          <mxGeometry relative="1" as="geometry">
            <Array as="points">
              <mxPoint x="697" y="541" />
            </Array>
          </mxGeometry>
        </mxCell>
        <mxCell id="WwvPfcLCm5THqT_-2dCE-16" value="&quot;Pipeline failed due to memory limits (ERR-451)...&quot;" style="verticalAlign=bottom;endArrow=block;edgeStyle=elbowEdgeStyle;elbow=vertical;curved=0;rounded=0;dashed=1;dashPattern=2 3;" edge="1" parent="1" source="WwvPfcLCm5THqT_-2dCE-5" target="WwvPfcLCm5THqT_-2dCE-2">
          <mxGeometry relative="1" as="geometry">
            <Array as="points">
              <mxPoint x="697" y="593" />
            </Array>
          </mxGeometry>
        </mxCell>
        <mxCell id="WwvPfcLCm5THqT_-2dCE-17" value="Response with status and docs" style="verticalAlign=bottom;endArrow=block;edgeStyle=elbowEdgeStyle;elbow=vertical;curved=0;rounded=0;dashed=1;dashPattern=2 3;" edge="1" parent="1" source="WwvPfcLCm5THqT_-2dCE-2" target="WwvPfcLCm5THqT_-2dCE-1">
          <mxGeometry relative="1" as="geometry">
            <Array as="points">
              <mxPoint x="248" y="645" />
            </Array>
          </mxGeometry>
        </mxCell>
      </root>
    </mxGraphModel>
  </diagram>
</mxfile>
